<svg xmlns="http://www.w3.org/2000/svg" xmlns:xlink="http://www.w3.org/1999/xlink" version="1.1" id="Layer_1" x="0px" y="0px" viewBox="0 0 127.404 61.915" style=" fill:#fff;enable-background:new 0 0 127.404 61.915;" xml:space="preserve">
                            <g>
                                <path d="M19.291,18.811H2.65c-0.667,0-1.213-0.546-1.213-1.213v0c0-0.667,0.546-1.213,1.213-1.213h16.641   c0.667,0,1.213,0.546,1.213,1.213v0C20.504,18.265,19.958,18.811,19.291,18.811z" />
                                <path d="M19.291,11.585h-6.303c-0.667,0-1.213-0.546-1.213-1.213v0c0-0.667,0.546-1.213,1.213-1.213h6.303   c0.667,0,1.213,0.546,1.213,1.213v0C20.504,11.039,19.958,11.585,19.291,11.585z" />
                                <path d="M19.291,33.263h-7.674c-0.667,0-1.213-0.546-1.213-1.213v0c0-0.667,0.546-1.213,1.213-1.213h7.674   c0.667,0,1.213,0.546,1.213,1.213v0C20.504,32.717,19.958,33.263,19.291,33.263z" />
                                <path d="M25.475,48.769h-8.122c-0.667,0-1.213-0.546-1.213-1.213l0,0c0-0.667,0.546-1.213,1.213-1.213h8.122   c0.667,0,1.213,0.546,1.213,1.213l0,0C26.688,48.223,26.142,48.769,25.475,48.769z" />
                                <path d="M19.291,26.037h-3.679c-0.667,0-1.213-0.546-1.213-1.213v0c0-0.667,0.546-1.213,1.213-1.213h3.679   c0.667,0,1.213,0.546,1.213,1.213v0C20.504,25.491,19.958,26.037,19.291,26.037z" />
                                <path d="M19.291,41.702H8.294c-0.667,0-1.213-0.546-1.213-1.213v0c0-0.667,0.546-1.213,1.213-1.213h10.997   c0.667,0,1.213,0.546,1.213,1.213v0C20.504,41.156,19.958,41.702,19.291,41.702z" />
                                <g>
                                    <path d="M50.554,60.978c-4.869,0-8.831-3.961-8.831-8.831s3.961-8.831,8.831-8.831s8.831,3.961,8.831,8.831    S55.423,60.978,50.554,60.978z M50.554,46.23c-3.263,0-5.917,2.655-5.917,5.917s2.655,5.917,5.917,5.917    c3.263,0,5.917-2.655,5.917-5.917S53.817,46.23,50.554,46.23z" />
                                </g>
                                <g>
                                    <path d="M96.694,60.978c-4.869,0-8.831-3.961-8.831-8.831s3.961-8.831,8.831-8.831c4.869,0,8.831,3.961,8.831,8.831    S101.563,60.978,96.694,60.978z M96.694,46.23c-3.263,0-5.917,2.655-5.917,5.917s2.655,5.917,5.917,5.917    c3.263,0,5.917-2.655,5.917-5.917S99.957,46.23,96.694,46.23z" />
                                </g>
                                <g>
                                    <path d="M56.46,26.046c-0.376,0-0.642,0.253-0.642,0.875v4.864c0,0.623,0.266,0.875,0.642,0.875c0.391,0,0.673-0.253,0.673-0.875    v-4.864C57.133,26.299,56.851,26.046,56.46,26.046z" />
                                    <path d="M81.926,31.28v0.759c0,0.623,0.266,0.876,0.642,0.876c0.172,0,0.438-0.136,0.689-0.35v-2.646    C82.974,30.112,81.926,30.229,81.926,31.28z" />
                                    <path d="M123.324,17.246V9.344c-4.621,0-8.366-3.746-8.366-8.366h-3.708v0.615h-0.848V0.978H32.223    c0,4.621-3.746,8.366-8.366,8.366V41.88c4.621,0,8.366,3.746,8.366,8.366h8.165c0.807-4.86,5.029-8.565,10.118-8.565    s9.311,3.705,10.118,8.565h25.934c0.807-4.86,5.029-8.565,10.118-8.565s9.311,3.705,10.118,8.565h3.582v-0.615h0.848v0.615h3.735    c0-4.621,3.746-8.366,8.366-8.366v-7.902c-4.621,0-8.366-3.746-8.366-8.366S118.703,17.246,123.324,17.246z M86.418,11.686    l1.342-2.72l1.342,2.72l3.002,0.436l-2.172,2.117l0.513,2.99l-2.685-1.412l-2.685,1.412l0.513-2.99l-2.172-2.117L86.418,11.686z     M71.873,11.445l1.342-2.72l1.342,2.72l3.002,0.436l-2.172,2.117l0.513,2.99l-2.685-1.412l-2.685,1.412l0.513-2.99l-2.172-2.117    L71.873,11.445z M57.328,11.445l1.342-2.72l1.342,2.72l3.002,0.436l-2.172,2.117l0.513,2.99l-2.685-1.412l-2.685,1.412l0.513-2.99    l-2.172-2.117L57.328,11.445z M46.051,31.552c0,2.587-1.268,3.93-3.209,3.93c-2.301,0-3.193-1.926-3.224-4.455    c0-0.486,0.016-1.031,0.078-1.556h2.301c-0.047,0.35-0.063,0.895-0.063,1.459c0.016,1.206,0.344,1.634,0.97,1.634    c0.516,0,0.814-0.272,0.814-1.304v-0.817c0-0.739-0.11-1.051-0.516-1.401c-0.626-0.506-1.612-1.148-2.254-1.79    c-0.814-0.837-1.221-1.517-1.221-3.171v-0.973c0-2.276,1.017-3.619,3.115-3.619c2.426,0,3.099,1.654,3.099,4.144    c0,0.409-0.031,0.817-0.078,1.226h-2.207c0.031-0.37,0.047-0.739,0.047-1.284c0-0.953-0.313-1.206-0.83-1.206    c-0.563,0-0.814,0.253-0.814,1.128v0.331c0,0.681,0.157,0.992,0.517,1.304c0.657,0.603,1.91,1.401,2.442,1.926    c0.798,0.798,1.033,1.751,1.033,3.21V31.552z M52.64,35.209h-2.207v-8.288c0-0.661-0.203-0.875-0.548-0.875    c-0.329,0-0.579,0.156-0.736,0.447v8.716h-2.207V19.782h2.207v4.222c0.329-0.389,0.861-0.603,1.675-0.603    c1.236,0,1.816,0.856,1.816,2.704V35.209z M59.308,31.844c0,2.412-1.127,3.541-2.849,3.541c-1.69,0-2.817-1.128-2.817-3.541    v-4.903c0-2.412,1.127-3.541,2.817-3.541c1.722,0,2.849,1.128,2.849,3.541V31.844z M67.761,35.209h-2.457l-0.939-6.945h-0.063    l-1.017,6.945h-2.426l-1.143-11.634h2.191l0.485,7.276h0.063l1.017-7.276h1.784l1.017,7.276h0.063l0.532-7.276h2.082    L67.761,35.209z M78.889,35.209h-2.207v-8.288c0-0.661-0.203-0.875-0.548-0.875c-0.329,0-0.579,0.156-0.736,0.447v8.716h-2.207    v-8.288c0-0.661-0.204-0.875-0.548-0.875c-0.329,0-0.579,0.156-0.736,0.447v8.716h-2.207V23.575h1.91v0.7    c0.438-0.447,0.923-0.875,1.972-0.875c0.72,0,1.221,0.311,1.503,0.895l0.016-0.019c0.438-0.447,0.924-0.875,1.972-0.875    c1.237,0,1.816,0.856,1.816,2.704V35.209z M86.418,34.879c-0.25,0.35-0.736,0.506-1.19,0.506c-1.033,0-1.456-0.623-1.628-1.089    c-0.203,0.467-0.626,1.089-1.878,1.089c-1.158,0-1.956-0.856-1.956-2.51v-1.187c0-1.712,0.344-2.237,1.174-2.685    c0.751-0.409,1.659-0.603,2.316-0.992v-1.362c0-0.525-0.203-0.778-0.704-0.778c-0.579,0-0.689,0.311-0.689,0.953    c0,0.292,0.016,0.739,0.063,0.992h-1.925c-0.063-0.37-0.094-0.72-0.094-1.226c0-1.945,0.626-3.191,2.676-3.191    c2.223,0,2.864,1.089,2.864,3.385V32.7c0,0.409,0.219,0.642,0.454,0.642c0.235,0,0.376-0.097,0.517-0.253V34.879z M89.314,35.385    c-1.69,0-2.238-1.051-2.238-2.86v-7.004h-1.002v-1.945h0.501c0.423,0,0.563-0.214,0.61-0.759l0.188-1.945h1.816v2.704h1.831v1.945    h-1.769v7.12c0,0.37,0.157,0.545,0.407,0.545c0.297,0,0.376-0.272,0.376-0.642c0-0.136,0-0.311-0.047-0.447h1.002    c0.094,0.311,0.141,0.661,0.141,1.031C91.129,34.587,90.456,35.385,89.314,35.385z M97.296,27.855    c0,0.875-0.031,1.537-0.094,1.887h-3.459v2.159c0,0.72,0.313,0.876,0.642,0.876c0.767,0,0.814-0.603,0.814-1.206    c0-0.272-0.031-0.584-0.047-0.875h2.019c0.078,0.331,0.11,0.72,0.11,1.148c0,1.829-0.642,3.541-2.77,3.541    c-1.69,0-2.849-1.089-2.849-3.405v-5.195c0-2.296,1.064-3.385,2.849-3.385c2.05,0,2.786,1.284,2.786,3.755V27.855z     M103.729,32.175c0,2.179-1.111,3.21-2.864,3.21c-2.16,0-2.849-1.42-2.849-3.21c0-0.35,0.031-0.7,0.078-1.07h2.16    c-0.031,0.195-0.047,0.428-0.047,0.642c0,0.739,0.204,1.128,0.704,1.128c0.407,0,0.626-0.311,0.626-0.875v-0.35    c0-0.545-0.172-0.759-0.548-0.973c-0.485-0.253-1.252-0.642-1.847-1.148c-0.767-0.661-1.033-1.226-1.033-2.685v-0.467    c0-1.946,0.908-2.977,2.755-2.977c2.223,0,2.739,1.245,2.739,2.899c0,0.35-0.031,0.681-0.11,0.973h-2.003    c0.031-0.214,0.063-0.428,0.063-0.603c0-0.525-0.172-0.837-0.657-0.837c-0.423,0-0.642,0.214-0.642,0.856v0.195    c0,0.37,0.141,0.584,0.501,0.798c0.516,0.331,1.534,0.72,2.082,1.187c0.626,0.564,0.892,1.167,0.892,2.626V32.175z     M110.399,13.537h0.848v1.231h-0.848V13.537z M110.397,16.833h0.848v1.231h-0.848V16.833z M110.39,20.026h0.848v1.231h-0.848    V20.026z M111.24,23.375v1.231h-0.848v-1.231H111.24z M110.39,26.617h0.848v1.231h-0.848V26.617z M111.249,47.556h-0.848v-1.231    h0.848V47.556z M111.249,44.277h-0.848v-1.231h0.848V44.277z M111.249,40.999h-0.848v-1.231h0.848V40.999z M111.249,37.72h-0.848    v-1.231h0.848V37.72z M111.249,34.493h-0.848v-1.231h0.848V34.493z M111.249,31.197h-0.848v-1.231h0.848V31.197z M111.249,11.471    h-0.848V10.24h0.848V11.471z M111.251,8.175h-0.848V6.944h0.848V8.175z M111.251,4.878h-0.848V3.647h0.848V4.878z" />
                                    <path d="M94.479,25.891c-0.47,0-0.736,0.331-0.736,0.934v1.148h1.44c0.016-0.214,0.031-0.681,0.031-0.973    C95.215,26.26,95.09,25.891,94.479,25.891z" />
                                </g>
                                <g>
                                    <g>
                                        <path d="M93.756,51.409c0.271-1.08,1.12-1.929,2.2-2.2v-1.562c-1.927,0.314-3.448,1.835-3.761,3.761H93.756z" />
                                        <path d="M97.432,49.209c1.08,0.27,1.929,1.12,2.2,2.2h1.562c-0.314-1.927-1.835-3.448-3.761-3.761V49.209z" />
                                        <path d="M95.956,55.085c-1.08-0.27-1.929-1.12-2.2-2.2h-1.562c0.314,1.927,1.835,3.448,3.761,3.761V55.085z" />
                                        <path d="M99.632,52.886c-0.271,1.08-1.12,1.929-2.2,2.2v1.562c1.927-0.314,3.448-1.835,3.761-3.761H99.632z" />
                                    </g>
                                    <circle cx="96.668" cy="52.156" r="1.292" />
                                </g>
                                <g>
                                    <g>
                                        <path d="M47.615,51.409c0.27-1.08,1.12-1.929,2.2-2.2v-1.562c-1.927,0.314-3.448,1.835-3.761,3.761H47.615z" />
                                        <path d="M51.292,49.209c1.08,0.27,1.929,1.12,2.2,2.2h1.562c-0.314-1.927-1.835-3.448-3.761-3.761V49.209z" />
                                        <path d="M49.815,55.085c-1.08-0.27-1.929-1.12-2.2-2.2h-1.562c0.314,1.927,1.835,3.448,3.761,3.761V55.085z" />
                                        <path d="M53.492,52.886c-0.27,1.08-1.12,1.929-2.2,2.2v1.562c1.927-0.314,3.448-1.835,3.761-3.761H53.492z" />
                                    </g>
                                    <circle cx="50.528" cy="52.156" r="1.292" />
                                </g>
                                <path d="M7.336,33.263h-3c-0.667,0-1.213-0.546-1.213-1.213v0c0-0.667,0.546-1.213,1.213-1.213h3c0.667,0,1.213,0.546,1.213,1.213   v0C8.549,32.717,8.003,33.263,7.336,33.263z" />
                                <path d="M8.92,11.585H5.241c-0.667,0-1.213-0.546-1.213-1.213v0c0-0.667,0.546-1.213,1.213-1.213H8.92   c0.667,0,1.213,0.546,1.213,1.213v0C10.133,11.039,9.587,11.585,8.92,11.585z" />
                            </g>
                        </svg>