<svg version="1.1" id="Layer_1" xmlns="http://www.w3.org/2000/svg" xmlns:xlink="http://www.w3.org/1999/xlink" x="0px" y="0px"
	width="140" height="45" viewBox="0 0 552 197" enable-background="new 0 0 552 197" xml:space="preserve">
<path fill="#FEFEFE" opacity="1.000000" stroke="none" 
	d="
M553.000000,2.000000 
	C553.000000,67.303383 553.000000,132.606766 553.000000,197.955078 
	C369.114319,197.955078 185.228607,197.955078 1.000000,197.955078 
	C1.000000,132.977768 1.000000,67.954926 1.226971,2.367612 
	C1.738843,1.605384 1.920862,1.337670 2.000000,1.000000 
	C185.022629,1.000000 368.045258,1.000000 551.634155,1.225139 
	C552.401367,1.728800 552.667908,1.912040 553.000000,2.000000 
M221.092560,146.594162 
	C221.316498,146.823532 221.574905,147.003357 222.271759,147.691742 
	C224.025406,148.883057 225.694794,150.228256 227.545929,151.241470 
	C243.123108,159.767517 257.389587,169.907166 268.618439,183.910980 
	C276.137054,193.287704 286.179688,197.662201 297.975220,196.807983 
	C318.409851,195.328140 335.531219,185.803116 350.004211,172.071899 
	C358.718658,163.804047 365.710388,153.720474 373.922852,144.998993 
	C378.244415,148.478043 381.764252,148.267288 387.345490,143.929276 
	C391.117889,139.750717 392.655090,134.718414 392.983704,129.229004 
	C390.329742,133.848038 387.675781,138.467072 384.148529,143.222427 
	C379.180634,143.667252 380.684235,140.109848 381.226440,137.891693 
	C382.765137,131.597076 384.728302,125.406952 386.487976,119.165428 
	C389.036713,110.124947 391.553528,101.075462 394.194275,91.635483 
	C391.566406,91.931099 389.446655,91.744919 387.733215,92.491402 
	C386.258270,93.133965 385.246674,94.840103 383.328766,96.232109 
	C381.863861,94.603485 380.398926,92.974869 378.975739,90.537453 
	C378.679230,89.424988 378.440063,88.293465 378.077637,87.202904 
	C372.715210,71.066704 364.166473,56.918285 352.944824,44.062977 
	C343.458008,33.195129 332.493744,24.643238 319.496796,18.764395 
	C304.590881,12.022064 288.917694,10.979703 272.735718,12.852301 
	C249.703094,15.517663 228.435760,22.614470 209.317078,35.847744 
	C189.694351,49.429890 177.351608,67.361031 175.056290,91.713570 
	C169.029724,90.491875 163.305191,91.561989 158.505890,95.230385 
	C145.303070,105.322113 140.286118,119.275352 141.380249,135.375366 
	C141.928879,143.448242 147.125931,147.193497 155.129181,147.403625 
	C162.106354,147.586792 168.275269,145.250946 172.206024,139.819366 
	C176.699066,133.610779 179.935928,126.493095 184.290726,120.184242 
	C186.940231,122.816101 189.589737,125.447960 192.133789,128.891632 
	C188.466858,142.439194 194.993851,149.770569 208.272644,146.992218 
	C209.239517,146.789917 210.157990,146.356262 211.842453,146.015381 
	C213.271271,145.652985 214.700073,145.290573 216.809235,145.033600 
	C218.136414,145.431900 219.463608,145.830185 221.092560,146.594162 
M461.857086,116.516693 
	C465.010406,114.429039 468.368439,112.588943 471.266357,110.192467 
	C475.084656,107.034904 477.521759,102.935341 477.118927,97.708824 
	C476.922089,95.155098 476.477936,92.608208 472.584778,92.719513 
	C472.070770,92.518837 471.556793,92.318161 470.281372,92.027267 
	C469.519287,92.078094 468.757202,92.128922 467.166504,92.039497 
	C461.158630,92.341949 456.168030,94.851913 451.827820,98.925766 
	C442.628784,107.560234 437.083984,118.110939 435.492157,130.596222 
	C434.394196,139.208069 438.309723,146.032730 444.837250,147.068283 
	C450.177979,147.915573 455.492157,147.701035 460.662659,143.857819 
	C463.837341,140.658768 467.012024,137.459717 470.186707,134.260681 
	C469.747894,133.821121 469.309082,133.381561 468.870270,132.942001 
	C465.850891,135.711761 462.831512,138.481522 459.078613,141.428253 
	C458.412384,141.779831 457.746155,142.131393 456.442413,142.439102 
	C455.643738,142.684357 454.845062,142.929626 453.275665,143.099350 
	C452.502319,143.131195 451.729004,143.163025 450.519562,142.853256 
	C449.984802,142.729050 449.450073,142.604843 448.357605,141.958588 
	C443.440765,135.955917 444.857330,129.498459 447.756561,122.936523 
	C452.227051,120.896431 456.697571,118.856331 461.857086,116.516693 
M490.092224,145.321823 
	C488.514160,145.163162 486.936127,145.004501 485.165649,144.826508 
	C485.340424,142.721100 485.905823,140.980743 485.509552,139.497269 
	C484.912109,137.260544 483.925690,134.974365 482.493042,133.204178 
	C482.042389,132.647339 478.487671,133.382614 478.316284,134.038940 
	C477.697205,136.410080 477.024658,139.428314 477.987061,141.423309 
	C480.536713,146.708603 485.529022,147.796036 491.856262,147.244553 
	C505.489532,146.750473 512.631470,134.988937 506.517822,122.794022 
	C504.443298,118.656021 501.728119,114.838104 499.288666,110.884453 
	C495.551666,104.827827 495.722229,100.663231 500.762512,94.657753 
	C503.741425,94.322945 506.720337,93.988136 510.722565,93.538315 
	C509.689972,95.709099 509.055664,96.426689 509.062866,97.137779 
	C509.089111,99.725983 509.117584,102.363068 509.714294,104.844894 
	C509.805817,105.225655 514.088318,105.424522 514.375366,104.784637 
	C515.424805,102.445457 516.418335,99.553116 515.941528,97.167183 
	C514.945435,92.182671 505.373505,90.027191 498.140137,92.998840 
	C492.773804,94.258278 488.207214,98.433220 488.373749,103.935440 
	C488.511139,108.473732 490.348175,113.123062 492.178802,117.403847 
	C494.178345,122.079628 497.723816,126.151535 499.362823,130.911133 
	C501.941315,138.398926 498.699799,143.367493 490.092224,145.321823 
M56.852871,147.233948 
	C70.016357,146.697739 77.208702,135.340027 71.702644,123.444962 
	C69.968002,119.697510 67.541122,116.253601 65.275879,112.771721 
	C57.832695,101.330910 60.783806,94.478134 73.799850,93.136436 
	C68.728088,90.905937 61.237171,91.912949 57.508293,95.521767 
	C52.861664,100.018791 51.563156,105.529785 53.836197,111.513374 
	C54.996475,114.567726 57.174442,117.221695 58.730297,120.142975 
	C60.746655,123.928886 63.229195,127.621605 64.386887,131.675476 
	C66.414383,138.775146 63.233810,143.453491 55.164558,145.305801 
	C53.550369,145.196777 51.936180,145.087753 50.109489,144.964386 
	C50.109489,142.087509 50.687119,139.428528 49.928646,137.230606 
	C49.310173,135.438370 47.094109,134.197433 45.586418,132.712051 
	C44.374336,134.386002 42.255085,135.986786 42.113075,137.747055 
	C41.600250,144.103683 47.140762,147.632278 56.852871,147.233948 
M119.826645,94.807228 
	C122.932251,94.730240 124.015785,96.543640 123.572556,99.262917 
	C123.175499,101.698875 122.452179,104.097305 121.699226,106.456902 
	C118.382111,116.852226 114.766701,127.161392 111.819527,137.659042 
	C111.129326,140.117477 111.693588,144.370834 113.351997,145.677963 
	C115.389992,147.284271 119.239586,147.168625 122.192001,146.822922 
	C123.973778,146.614304 125.538834,144.554825 127.808022,142.998138 
	C130.799103,138.965790 132.271332,134.424484 133.333893,129.745911 
	C132.922318,129.591431 132.510727,129.436951 132.099152,129.282471 
	C130.014084,133.488922 127.929016,137.695374 125.175316,142.215530 
	C123.645805,142.813095 122.116295,143.410660 119.460327,144.448334 
	C120.229774,140.660080 120.520363,138.053787 121.298630,135.602310 
	C124.584160,125.253181 128.170944,114.997368 131.314346,104.606621 
	C132.537628,100.563026 133.666855,96.101944 128.810791,92.399986 
	C127.848175,92.189606 126.885551,91.979225 125.213799,91.426514 
	C122.767265,91.876724 120.320732,92.326942 117.169128,92.842499 
	C115.434013,94.055573 113.448463,95.029938 112.016624,96.532089 
	C109.153854,99.535446 106.594437,102.827942 103.385628,105.306198 
	C107.292358,91.695145 111.199089,78.084099 115.115837,64.438156 
	C108.391014,65.950294 102.404572,67.296410 96.418121,68.642517 
	C103.745628,71.504074 104.085304,72.102211 102.004807,79.212029 
	C99.856758,86.552727 97.690010,93.887978 95.515770,101.220978 
	C91.130898,116.009720 86.735413,130.795319 82.330734,145.627899 
	C90.980766,146.998886 90.713539,146.908432 93.309631,139.239349 
	C96.288010,130.440979 99.802582,121.824127 103.616356,112.700119 
	C107.581337,105.745377 111.112083,98.419220 119.826645,94.807228 
M425.018738,91.974007 
	C426.330109,86.724625 427.641510,81.475235 428.968231,76.164421 
	C421.082642,75.736595 420.065582,76.415543 418.140991,83.135597 
	C417.912933,83.931931 417.565338,84.718819 417.490173,85.530190 
	C416.938843,91.480881 413.781494,93.897537 407.898071,92.758377 
	C407.785706,92.736626 407.594635,93.121216 407.260101,93.543930 
	C409.417084,93.543930 411.389771,93.543930 414.042877,93.543930 
	C413.723572,96.065628 413.705780,98.357170 413.116974,100.491142 
	C410.295380,110.716614 407.226685,120.874390 404.455566,131.112991 
	C403.645020,134.107712 402.630157,137.520035 403.351379,140.317520 
	C404.013947,142.887436 406.515045,146.195038 408.865051,146.864426 
	C413.668579,148.232697 418.797882,147.649719 422.972687,142.825485 
	C424.916168,138.541183 426.859619,134.256882 428.803101,129.972580 
	C428.237946,129.728485 427.672821,129.484375 427.107666,129.240280 
	C425.027374,133.380173 422.947113,137.520050 420.215637,141.977066 
	C419.169128,142.565628 418.122650,143.154190 416.312836,143.523605 
	C415.519836,143.510925 414.726868,143.498260 413.256592,143.001587 
	C412.972198,140.391907 411.915558,137.581360 412.533264,135.206299 
	C415.687378,123.079445 419.239655,111.055038 422.752869,99.024078 
	C423.186005,97.540787 424.217834,96.232323 425.881744,95.069641 
	C429.895203,94.966141 433.908630,94.862640 437.922089,94.759148 
	C437.889954,94.083351 437.857819,93.407555 437.825684,92.731758 
	C433.594330,92.731758 429.362976,92.731758 425.018738,91.974007 
M77.992699,105.504723 
	C81.808891,102.758102 82.830170,98.660316 80.085258,95.518532 
	C79.188492,94.492111 75.972786,93.837219 75.899940,93.992058 
	C74.687721,96.568718 73.278069,99.268379 73.107063,102.014961 
	C73.036613,103.146515 75.788437,104.453789 77.992699,105.504723 
z"/>
<path fill="#ECECEC" opacity="1.000000" stroke="none" 
	d="
M553.000000,1.500000 
	C552.667908,1.912040 552.401367,1.728800 552.100220,1.225139 
	C552.333313,1.000000 552.666687,1.000000 553.000000,1.500000 
z"/>
<path fill="#ECECEC" opacity="1.000000" stroke="none" 
	d="
M1.500000,1.000000 
	C1.920862,1.337670 1.738843,1.605384 1.226971,1.901571 
	C1.000000,1.666667 1.000000,1.333333 1.500000,1.000000 
z"/>
<path fill="#FBADF4" opacity="1.000000" stroke="none" 
	d="
M192.239258,128.079819 
	C189.589737,125.447960 186.940231,122.816101 184.033020,119.569031 
	C184.242966,115.201782 184.967010,111.460381 185.123184,107.695412 
	C185.418991,100.564186 183.252426,94.659462 175.959671,91.814079 
	C177.351608,67.361031 189.694351,49.429890 209.317078,35.847744 
	C228.435760,22.614470 249.703094,15.517663 272.735718,12.852301 
	C288.917694,10.979703 304.590881,12.022064 319.496796,18.764395 
	C332.493744,24.643238 343.458008,33.195129 352.944824,44.062977 
	C364.166473,56.918285 372.715210,71.066704 378.077637,87.202904 
	C378.440063,88.293465 378.679230,89.424988 378.547058,90.877060 
	C376.088898,91.521851 374.059357,91.827034 371.681213,92.186562 
	C356.732941,98.545372 343.499878,122.950272 346.110443,138.756485 
	C347.400574,146.567780 353.042816,149.324280 361.363586,146.004715 
	C365.149536,141.982941 368.588531,137.995331 372.296387,133.780853 
	C372.968536,134.339752 373.701416,135.119537 373.715790,135.912354 
	C373.767334,138.756805 373.575867,141.605652 373.476288,144.452835 
	C365.710388,153.720474 358.718658,163.804047 350.004211,172.071899 
	C335.531219,185.803116 318.409851,195.328140 297.975220,196.807983 
	C286.179688,197.662201 276.137054,193.287704 268.618439,183.910980 
	C257.389587,169.907166 243.123108,159.767517 227.545929,151.241470 
	C225.694794,150.228256 224.025406,148.883057 222.233841,147.223083 
	C222.303757,146.626678 222.411606,146.498947 222.896790,146.460342 
	C229.005905,148.050980 234.569916,148.044815 240.043243,144.623474 
	C240.929214,144.028366 241.536072,143.524536 242.291519,142.606140 
	C241.954269,142.089600 241.468430,141.987656 240.688660,141.958282 
	C239.748657,142.490814 239.102615,142.950745 238.039551,143.490311 
	C235.851242,143.822708 234.082779,144.266312 232.308228,144.292130 
	C227.152954,144.367218 224.026886,141.181274 224.243286,135.780518 
	C231.461349,132.255020 236.993393,121.325356 235.396667,113.623528 
	C235.064941,112.023407 233.863449,109.483551 232.868835,109.387611 
	C231.112122,109.218163 229.206268,110.594620 227.240540,111.470673 
	C226.817581,112.201691 226.516922,112.786034 225.858002,113.506180 
	C218.776031,118.951782 217.258545,126.420174 216.818024,134.377075 
	C216.676147,136.940094 216.251678,139.487488 215.886703,142.092987 
	C215.816910,142.143967 215.665466,142.227264 215.283478,142.217712 
	C210.362656,140.122375 205.823807,138.036560 201.205475,135.548996 
	C201.403473,127.864906 203.351669,121.052734 207.591675,115.121353 
	C211.526535,109.616882 215.860245,104.397545 220.359039,99.017151 
	C221.864456,97.680870 223.029175,96.380096 224.193893,95.079323 
	C223.953598,94.845551 223.713318,94.611786 223.473022,94.378014 
	C222.301407,94.872948 221.129791,95.367874 219.557114,95.910965 
	C217.002930,95.125565 214.576279,94.676483 212.753036,93.379272 
	C208.827682,90.586433 204.768738,90.574852 202.015289,94.641052 
	C199.951736,97.688469 198.897644,101.419441 197.231491,105.114517 
	C196.769821,106.638832 196.470764,107.894722 196.171707,109.150604 
	C196.622238,109.287476 197.072769,109.424355 197.523315,109.561226 
	C198.010910,108.039230 198.498489,106.517235 199.219513,104.725471 
	C202.633560,94.648178 208.194626,103.038071 211.633850,102.450218 
	C205.312653,110.803566 198.775955,119.441696 192.239258,128.079819 
M308.620728,92.509789 
	C307.727631,92.251266 306.834534,91.992744 305.208374,91.386604 
	C304.159821,91.517700 303.111298,91.648796 301.537994,91.583405 
	C301.045990,91.791412 300.553986,91.999413 299.460968,92.227753 
	C298.604584,92.724213 297.748230,93.220673 296.219910,93.887970 
	C292.567474,98.474625 288.940277,103.081772 285.244904,107.633553 
	C284.317322,108.776093 283.170929,109.740974 282.324921,110.097290 
	C283.161774,106.893280 284.552490,103.708496 284.664490,100.479340 
	C284.758240,97.778076 284.160614,93.688042 282.411896,92.636566 
	C280.274475,91.351379 276.194092,91.716522 273.697021,92.915581 
	C266.992188,96.135162 266.173737,103.107918 264.748322,109.494728 
	C265.991608,108.441574 266.570953,107.054420 267.224670,105.703270 
	C268.523834,103.018044 269.569122,100.135536 271.310913,97.770157 
	C272.188660,96.578178 274.360260,96.338921 275.946777,95.668846 
	C276.288391,97.166954 276.791565,98.652206 276.912231,100.167900 
	C276.987091,101.107979 276.501099,102.099663 276.233826,103.058968 
	C273.248291,113.775208 270.239288,124.484962 267.275757,135.207275 
	C266.324188,138.650009 265.487946,142.124634 264.393829,146.382965 
	C268.151733,145.090347 272.227081,148.780518 273.997498,143.578461 
	C277.096069,134.473755 280.093994,125.334801 283.662292,115.750992 
	C288.182281,109.074509 292.702271,102.398026 297.987396,95.427246 
	C303.344147,94.554298 304.619446,95.595955 303.223877,100.718262 
	C300.483093,110.777939 297.339539,120.727730 294.375061,130.726669 
	C292.899872,135.702377 291.452179,140.686218 289.964966,145.758774 
	C298.709991,146.666382 298.744781,146.679260 300.098907,143.020187 
	C303.428864,134.022308 306.723633,125.011414 310.547058,115.560127 
	C314.458893,109.353363 318.370728,103.146599 322.984619,96.576706 
	C324.831146,96.147339 326.677704,95.717972 328.524231,95.288612 
	C328.733856,97.304947 329.271576,99.355827 329.063873,101.328232 
	C328.841431,103.440834 327.955688,105.491982 327.292603,107.548393 
	C324.127594,117.363693 320.899933,127.159004 317.782715,136.989380 
	C316.741028,140.274216 316.002319,144.427444 319.500519,145.946365 
	C322.459381,147.231125 326.794067,147.166336 329.815308,145.949478 
	C332.545441,144.849869 334.321747,141.382080 336.518646,138.958603 
	C335.987823,138.469955 335.456970,137.981308 334.926117,137.492676 
	C334.090637,138.706116 333.494171,140.267197 332.360352,141.046768 
	C330.877594,142.066284 328.970001,142.467896 327.245117,143.135330 
	C327.052429,141.338760 326.307739,139.385529 326.765259,137.773499 
	C328.488892,131.700363 330.682983,125.762779 332.550171,119.727798 
	C334.463104,113.544754 336.851135,107.409561 337.848694,101.067429 
	C339.106812,93.068886 334.326660,89.559998 326.595642,92.086807 
	C324.921173,92.634094 323.467010,93.855324 321.273285,95.008713 
	C317.918915,99.589455 314.601654,104.198189 311.184326,108.731468 
	C310.319305,109.878944 309.135162,110.785835 308.329041,111.117455 
	C309.020569,108.775955 309.898010,106.470543 310.361176,104.084709 
	C311.098877,100.284843 312.327972,96.325325 308.620728,92.509789 
M244.370422,102.007240 
	C245.328598,102.660965 246.219391,103.729485 247.256409,103.897972 
	C252.252869,104.709770 252.347168,108.367775 252.254410,112.121170 
	C252.033676,121.053978 250.238373,129.536362 244.995071,137.025909 
	C244.346497,137.952362 244.039658,139.118057 243.574463,140.172897 
	C243.980148,140.417236 244.385849,140.661575 244.791550,140.905914 
	C246.236191,139.000381 247.956818,137.243561 249.077606,135.163544 
	C253.859451,126.289146 255.686310,116.728966 254.328506,106.774185 
	C253.755569,102.573502 252.473282,98.310684 250.608582,94.521385 
	C249.836121,92.951675 246.692413,92.548851 244.627075,91.615356 
	C243.756332,93.739029 242.583847,95.803604 242.151123,98.013062 
	C241.955444,99.012161 243.230637,100.299339 244.370422,102.007240 
z"/>
<path fill="#325B86" opacity="1.000000" stroke="none" 
	d="
M175.507980,91.763824 
	C183.252426,94.659462 185.418991,100.564186 185.123184,107.695412 
	C184.967010,111.460381 184.242966,115.201782 183.746979,119.362137 
	C179.935928,126.493095 176.699066,133.610779 172.206024,139.819366 
	C168.275269,145.250946 162.106354,147.586792 155.129181,147.403625 
	C147.125931,147.193497 141.928879,143.448242 141.380249,135.375366 
	C140.286118,119.275352 145.303070,105.322113 158.505890,95.230385 
	C163.305191,91.561989 169.029724,90.491875 175.507980,91.763824 
M150.399536,140.663635 
	C152.784119,145.593521 156.335678,146.876968 160.662415,143.807220 
	C163.034836,142.124039 165.209961,139.812790 166.722549,137.327393 
	C173.833969,125.642349 176.673141,112.818832 175.917206,99.212547 
	C175.672638,94.810089 172.289566,92.203438 168.348389,94.067963 
	C165.096191,95.606537 161.881973,98.298073 159.922546,101.306824 
	C152.337143,112.954422 149.821564,126.064415 150.399536,140.663635 
z"/>
<path fill="#2F5984" opacity="1.000000" stroke="none" 
	d="
M103.084229,113.128418 
	C99.802582,121.824127 96.288010,130.440979 93.309631,139.239349 
	C90.713539,146.908432 90.980766,146.998886 82.330734,145.627899 
	C86.735413,130.795319 91.130898,116.009720 95.515770,101.220978 
	C97.690010,93.887978 99.856758,86.552727 102.004807,79.212029 
	C104.085304,72.102211 103.745628,71.504074 96.418121,68.642517 
	C102.404572,67.296410 108.391014,65.950294 115.115837,64.438156 
	C111.199089,78.084099 107.292358,91.695145 103.680893,105.655579 
	C103.976151,106.004959 103.974236,105.938416 103.604904,105.957275 
	C103.143295,106.693901 103.051010,107.411674 102.793480,108.421997 
	C102.780235,110.185837 102.932236,111.657127 103.084229,113.128418 
M100.415176,114.476868 
	C100.415176,114.476868 100.523781,114.409958 100.415176,114.476868 
z"/>
<path fill="#2F5984" opacity="1.000000" stroke="none" 
	d="
M417.076141,143.742752 
	C418.122650,143.154190 419.169128,142.565628 420.721558,142.137268 
	C421.620361,142.579269 422.013245,142.861053 422.406097,143.142822 
	C418.797882,147.649719 413.668579,148.232697 408.865051,146.864426 
	C406.515045,146.195038 404.013947,142.887436 403.351379,140.317520 
	C402.630157,137.520035 403.645020,134.107712 404.455566,131.112991 
	C407.226685,120.874390 410.295380,110.716614 413.116974,100.491142 
	C413.705780,98.357170 413.723572,96.065628 414.042877,93.543930 
	C411.389771,93.543930 409.417084,93.543930 407.260101,93.543930 
	C407.594635,93.121216 407.785706,92.736626 407.898071,92.758377 
	C413.781494,93.897537 416.938843,91.480881 417.490173,85.530190 
	C417.565338,84.718819 417.912933,83.931931 418.140991,83.135597 
	C420.065582,76.415543 421.082642,75.736595 428.968231,76.164421 
	C427.641510,81.475235 426.330109,86.724625 425.032593,92.703491 
	C425.021729,93.902931 424.996948,94.372887 424.972198,94.842834 
	C424.217834,96.232323 423.186005,97.540787 422.752869,99.024078 
	C419.239655,111.055038 415.687378,123.079445 412.533264,135.206299 
	C411.915558,137.581360 412.972198,140.391907 413.667969,143.516251 
	C415.078308,143.934860 416.077209,143.838806 417.076141,143.742752 
z"/>
<path fill="#305985" opacity="1.000000" stroke="none" 
	d="
M127.201279,143.327011 
	C125.538834,144.554825 123.973778,146.614304 122.192001,146.822922 
	C119.239586,147.168625 115.389992,147.284271 113.351997,145.677963 
	C111.693588,144.370834 111.129326,140.117477 111.819527,137.659042 
	C114.766701,127.161392 118.382111,116.852226 121.699226,106.456902 
	C122.452179,104.097305 123.175499,101.698875 123.572556,99.262917 
	C124.015785,96.543640 122.932251,94.730240 119.260902,94.536392 
	C118.421509,93.769417 118.147850,93.273285 117.874199,92.777153 
	C120.320732,92.326942 122.767265,91.876724 125.711403,91.869545 
	C127.185974,92.517761 128.162949,92.722946 129.139908,92.928131 
	C133.666855,96.101944 132.537628,100.563026 131.314346,104.606621 
	C128.170944,114.997368 124.584160,125.253181 121.298630,135.602310 
	C120.520363,138.053787 120.229774,140.660080 119.460327,144.448334 
	C122.116295,143.410660 123.645805,142.813095 125.796837,142.232239 
	C126.679329,142.608292 126.940300,142.967651 127.201279,143.327011 
z"/>
<path fill="#335986" opacity="1.000000" stroke="none" 
	d="
M220.018341,99.052650 
	C215.860245,104.397545 211.526535,109.616882 207.591675,115.121353 
	C203.351669,121.052734 201.403473,127.864906 201.154236,135.938141 
	C202.223282,143.659027 202.967224,144.357864 209.705963,145.019348 
	C210.198639,145.067688 210.635941,145.680038 211.098984,146.030182 
	C210.157990,146.356262 209.239517,146.789917 208.272644,146.992218 
	C194.993851,149.770569 188.466858,142.439194 192.186523,128.485718 
	C198.775955,119.441696 205.312653,110.803566 211.633850,102.450218 
	C208.194626,103.038071 202.633560,94.648178 198.821121,104.692535 
	C197.924210,104.901596 197.659149,104.873840 197.394104,104.846077 
	C198.897644,101.419441 199.951736,97.688469 202.015289,94.641052 
	C204.768738,90.574852 208.827682,90.586433 212.753036,93.379272 
	C214.576279,94.676483 217.002930,95.125565 219.569305,96.309616 
	C219.994492,97.457626 220.006424,98.255142 220.018341,99.052650 
z"/>
<path fill="#325B86" opacity="1.000000" stroke="none" 
	d="
M446.995483,122.989189 
	C444.857330,129.498459 443.440765,135.955917 448.689606,142.467682 
	C449.666290,143.049484 450.310974,143.122177 450.955658,143.194870 
	C451.729004,143.163025 452.502319,143.131195 453.850220,143.354706 
	C455.309845,143.234360 456.194916,142.858673 457.079956,142.482971 
	C457.746155,142.131393 458.412384,141.779831 459.504578,141.793976 
	C459.952698,142.769547 459.974823,143.379364 459.996979,143.989197 
	C455.492157,147.701035 450.177979,147.915573 444.837250,147.068283 
	C438.309723,146.032730 434.394196,139.208069 435.492157,130.596222 
	C437.083984,118.110939 442.628784,107.560234 451.827820,98.925766 
	C456.168030,94.851913 461.158630,92.341949 467.558350,92.392326 
	C467.930206,92.933167 467.910248,93.121170 467.534363,93.290146 
	C464.457764,94.947258 461.287598,96.178421 459.102783,98.385124 
	C453.157440,104.390083 449.428284,111.768188 447.235840,120.240097 
	C447.023376,121.318413 447.009430,122.153801 446.995483,122.989189 
z"/>
<path fill="#315A85" opacity="1.000000" stroke="none" 
	d="
M56.022564,145.423477 
	C63.233810,143.453491 66.414383,138.775146 64.386887,131.675476 
	C63.229195,127.621605 60.746655,123.928886 58.730297,120.142975 
	C57.174442,117.221695 54.996475,114.567726 53.836197,111.513374 
	C51.563156,105.529785 52.861664,100.018791 57.508293,95.521767 
	C61.237171,91.912949 68.728088,90.905937 73.799850,93.136436 
	C60.783806,94.478134 57.832695,101.330910 65.275879,112.771721 
	C67.541122,116.253601 69.968002,119.697510 71.702644,123.444962 
	C77.208702,135.340027 70.016357,146.697739 56.431725,146.875122 
	C56.014572,146.152008 56.018570,145.787750 56.022564,145.423477 
z"/>
<path fill="#2F5884" opacity="1.000000" stroke="none" 
	d="
M373.699585,144.725922 
	C373.575867,141.605652 373.767334,138.756805 373.715790,135.912354 
	C373.701416,135.119537 372.968536,134.339752 371.847778,133.715240 
	C370.832672,133.823456 370.535065,133.770416 370.394104,133.384399 
	C374.343567,123.063141 378.136414,113.074875 382.007721,102.691757 
	C382.734192,100.223259 383.382202,98.149620 384.030212,96.075981 
	C385.246674,94.840103 386.258270,93.133965 387.733215,92.491402 
	C389.446655,91.744919 391.566406,91.931099 394.194275,91.635483 
	C391.553528,101.075462 389.036713,110.124947 386.487976,119.165428 
	C384.728302,125.406952 382.765137,131.597076 381.226440,137.891693 
	C380.684235,140.109848 379.180634,143.667252 384.825165,143.426117 
	C385.938599,143.828949 386.375366,144.028076 386.812164,144.227203 
	C381.764252,148.267288 378.244415,148.478043 373.699585,144.725922 
z"/>
<path fill="#305A85" opacity="1.000000" stroke="none" 
	d="
M499.968658,94.907814 
	C495.722229,100.663231 495.551666,104.827827 499.288666,110.884453 
	C501.728119,114.838104 504.443298,118.656021 506.517822,122.794022 
	C512.631470,134.988937 505.489532,146.750473 491.434784,146.887695 
	C491.019043,146.167801 491.024780,145.804733 491.030548,145.441681 
	C498.699799,143.367493 501.941315,138.398926 499.362823,130.911133 
	C497.723816,126.151535 494.178345,122.079628 492.178802,117.403847 
	C490.348175,113.123062 488.511139,108.473732 488.373749,103.935440 
	C488.207214,98.433220 492.773804,94.258278 498.770203,93.127190 
	C499.589722,93.806297 499.779175,94.357056 499.968658,94.907814 
z"/>
<path fill="#315A85" opacity="1.000000" stroke="none" 
	d="
M467.890289,93.309181 
	C467.910248,93.121170 467.930206,92.933167 467.972656,92.462456 
	C468.757202,92.128922 469.519287,92.078094 470.819946,92.292694 
	C471.866180,92.718147 472.373871,92.878189 472.881531,93.038231 
	C476.477936,92.608208 476.922089,95.155098 477.118927,97.708824 
	C477.521759,102.935341 475.084656,107.034904 471.266357,110.192467 
	C468.368439,112.588943 465.010406,114.429039 461.433014,116.165970 
	C460.963959,115.480507 460.918945,115.145775 461.073975,114.546906 
	C467.180328,108.459061 470.905304,101.947212 467.890289,93.309181 
z"/>
<path fill="#3B628B" opacity="1.000000" stroke="none" 
	d="
M490.561401,145.381744 
	C491.024780,145.804733 491.019043,146.167801 491.015015,146.803223 
	C485.529022,147.796036 480.536713,146.708603 477.987061,141.423309 
	C477.024658,139.428314 477.697205,136.410080 478.316284,134.038940 
	C478.487671,133.382614 482.042389,132.647339 482.493042,133.204178 
	C483.925690,134.974365 484.912109,137.260544 485.509552,139.497269 
	C485.905823,140.980743 485.340424,142.721100 485.165649,144.826508 
	C486.936127,145.004501 488.514160,145.163162 490.561401,145.381744 
z"/>
<path fill="#365E88" opacity="1.000000" stroke="none" 
	d="
M500.365601,94.782784 
	C499.779175,94.357056 499.589722,93.806297 499.143768,93.099770 
	C505.373505,90.027191 514.945435,92.182671 515.941528,97.167183 
	C516.418335,99.553116 515.424805,102.445457 514.375366,104.784637 
	C514.088318,105.424522 509.805817,105.225655 509.714294,104.844894 
	C509.117584,102.363068 509.089111,99.725983 509.062866,97.137779 
	C509.055664,96.426689 509.689972,95.709099 510.722565,93.538315 
	C506.720337,93.988136 503.741425,94.322945 500.365601,94.782784 
z"/>
<path fill="#386089" opacity="1.000000" stroke="none" 
	d="
M55.593559,145.364639 
	C56.018570,145.787750 56.014572,146.152008 56.012634,146.789520 
	C47.140762,147.632278 41.600250,144.103683 42.113075,137.747055 
	C42.255085,135.986786 44.374336,134.386002 45.586418,132.712051 
	C47.094109,134.197433 49.310173,135.438370 49.928646,137.230606 
	C50.687119,139.428528 50.109489,142.087509 50.109489,144.964386 
	C51.936180,145.087753 53.550369,145.196777 55.593559,145.364639 
z"/>
<path fill="#335B86" opacity="1.000000" stroke="none" 
	d="
M77.624634,105.592926 
	C75.788437,104.453789 73.036613,103.146515 73.107063,102.014961 
	C73.278069,99.268379 74.687721,96.568718 75.899940,93.992058 
	C75.972786,93.837219 79.188492,94.492111 80.085258,95.518532 
	C82.830170,98.660316 81.808891,102.758102 77.624634,105.592926 
z"/>
<path fill="#F7F5FA" opacity="1.000000" stroke="none" 
	d="
M211.470718,146.022781 
	C210.635941,145.680038 210.198639,145.067688 209.705963,145.019348 
	C202.967224,144.357864 202.223282,143.659027 201.233734,136.339905 
	C205.823807,138.036560 210.362656,140.122375 215.331711,142.557526 
	C215.884247,143.580627 216.006577,144.254410 216.128906,144.928162 
	C214.700073,145.290573 213.271271,145.652985 211.470718,146.022781 
z"/>
<path fill="#4D7096" opacity="1.000000" stroke="none" 
	d="
M117.521667,92.809830 
	C118.147850,93.273285 118.421509,93.769417 118.821457,94.520317 
	C111.112083,98.419220 107.581337,105.745377 103.350296,112.914268 
	C102.932236,111.657127 102.780235,110.185837 103.106628,108.264923 
	C103.714760,107.189674 103.844498,106.564049 103.974236,105.938416 
	C103.974236,105.938416 103.976151,106.004959 103.942955,106.003006 
	C106.594437,102.827942 109.153854,99.535446 112.016624,96.532089 
	C113.448463,95.029938 115.434013,94.055573 117.521667,92.809830 
z"/>
<path fill="#4B6F95" opacity="1.000000" stroke="none" 
	d="
M422.689392,142.984161 
	C422.013245,142.861053 421.620361,142.579269 421.047150,141.978714 
	C422.947113,137.520050 425.027374,133.380173 427.107666,129.240280 
	C427.672821,129.484375 428.237946,129.728485 428.803101,129.972580 
	C426.859619,134.256882 424.916168,138.541183 422.689392,142.984161 
z"/>
<path fill="#54769A" opacity="1.000000" stroke="none" 
	d="
M387.078827,144.078247 
	C386.375366,144.028076 385.938599,143.828949 385.261810,143.357971 
	C387.675781,138.467072 390.329742,133.848038 392.983704,129.229004 
	C392.655090,134.718414 391.117889,139.750717 387.078827,144.078247 
z"/>
<path fill="#6584A4" opacity="1.000000" stroke="none" 
	d="
M460.873932,114.811050 
	C460.918945,115.145775 460.963959,115.480507 461.088501,116.315735 
	C456.697571,118.856331 452.227051,120.896431 447.376038,122.962860 
	C447.009430,122.153801 447.023376,121.318413 447.643951,120.316406 
	C452.458374,118.370209 456.666168,116.590630 460.873932,114.811050 
z"/>
<path fill="#6976A4" opacity="1.000000" stroke="none" 
	d="
M383.679504,96.154045 
	C383.382202,98.149620 382.734192,100.223259 381.854614,102.348785 
	C380.405731,94.274567 379.734985,93.622635 372.955322,93.790161 
	C372.594910,93.063087 372.312378,92.597656 372.029846,92.132217 
	C374.059357,91.827034 376.088898,91.521851 378.526215,91.281464 
	C380.398926,92.974869 381.863861,94.603485 383.679504,96.154045 
z"/>
<path fill="#4F7297" opacity="1.000000" stroke="none" 
	d="
M127.504654,143.162567 
	C126.940300,142.967651 126.679329,142.608292 126.131149,142.075378 
	C127.929016,137.695374 130.014084,133.488922 132.099152,129.282471 
	C132.510727,129.436951 132.922318,129.591431 133.333893,129.745911 
	C132.271332,134.424484 130.799103,138.965790 127.504654,143.162567 
z"/>
<path fill="#54769A" opacity="1.000000" stroke="none" 
	d="
M460.329834,143.923508 
	C459.974823,143.379364 459.952698,142.769547 459.871338,141.705505 
	C462.831512,138.481522 465.850891,135.711761 468.870270,132.942001 
	C469.309082,133.381561 469.747894,133.821121 470.186707,134.260681 
	C467.012024,137.459717 463.837341,140.658768 460.329834,143.923508 
z"/>
<path fill="#4B6F95" opacity="1.000000" stroke="none" 
	d="
M425.426971,94.956238 
	C424.996948,94.372887 425.021729,93.902931 425.089050,93.082367 
	C429.362976,92.731758 433.594330,92.731758 437.825684,92.731758 
	C437.857819,93.407555 437.889954,94.083351 437.922089,94.759148 
	C433.908630,94.862640 429.895203,94.966141 425.426971,94.956238 
z"/>
<path fill="#FBADF4" opacity="1.000000" stroke="none" 
	d="
M216.469070,144.980896 
	C216.006577,144.254410 215.884247,143.580627 215.713699,142.567062 
	C215.665466,142.227264 215.816910,142.143967 216.243195,142.100418 
	C218.233002,143.243652 219.796509,144.430420 221.217545,145.769867 
	C221.075058,145.922531 220.790787,146.228485 220.790787,146.228485 
	C219.463608,145.830185 218.136414,145.431900 216.469070,144.980896 
z"/>
<path fill="#4B6F95" opacity="1.000000" stroke="none" 
	d="
M416.694489,143.633179 
	C416.077209,143.838806 415.078308,143.934860 414.006622,143.758255 
	C414.726868,143.498260 415.519836,143.510925 416.694489,143.633179 
z"/>
<path fill="#54769A" opacity="1.000000" stroke="none" 
	d="
M456.761169,142.461044 
	C456.194916,142.858673 455.309845,143.234360 454.235596,143.392456 
	C454.845062,142.929626 455.643738,142.684357 456.761169,142.461044 
z"/>
<path fill="#4D7096" opacity="1.000000" stroke="none" 
	d="
M128.975342,92.664055 
	C128.162949,92.722946 127.185974,92.517761 126.065971,92.040710 
	C126.885551,91.979225 127.848175,92.189606 128.975342,92.664055 
z"/>
<path fill="#54769A" opacity="1.000000" stroke="none" 
	d="
M450.737610,143.024063 
	C450.310974,143.122177 449.666290,143.049484 448.968445,142.728699 
	C449.450073,142.604843 449.984802,142.729050 450.737610,143.024063 
z"/>
<path fill="#325B86" opacity="1.000000" stroke="none" 
	d="
M472.733154,92.878876 
	C472.373871,92.878189 471.866180,92.718147 471.200653,92.337799 
	C471.556793,92.318161 472.070770,92.518837 472.733154,92.878876 
z"/>
<path fill="#FBADF4" opacity="1.000000" stroke="none" 
	d="
M222.031860,146.944046 
	C221.574905,147.003357 221.316498,146.823532 220.941681,146.411316 
	C220.790787,146.228485 221.075058,145.922531 221.433685,145.856522 
	C222.062958,145.948700 222.305328,146.142273 222.519440,146.371231 
	C222.411606,146.498947 222.303757,146.626678 222.031860,146.944046 
z"/>
<path fill="#315785" opacity="1.000000" stroke="none" 
	d="
M321.911377,94.766129 
	C323.467010,93.855324 324.921173,92.634094 326.595642,92.086807 
	C334.326660,89.559998 339.106812,93.068886 337.848694,101.067429 
	C336.851135,107.409561 334.463104,113.544754 332.550171,119.727798 
	C330.682983,125.762779 328.488892,131.700363 326.765259,137.773499 
	C326.307739,139.385529 327.052429,141.338760 327.245117,143.135330 
	C328.970001,142.467896 330.877594,142.066284 332.360352,141.046768 
	C333.494171,140.267197 334.090637,138.706116 334.926117,137.492676 
	C335.456970,137.981308 335.987823,138.469955 336.518646,138.958603 
	C334.321747,141.382080 332.545441,144.849869 329.815308,145.949478 
	C326.794067,147.166336 322.459381,147.231125 319.500519,145.946365 
	C316.002319,144.427444 316.741028,140.274216 317.782715,136.989380 
	C320.899933,127.159004 324.127594,117.363693 327.292603,107.548393 
	C327.955688,105.491982 328.841431,103.440834 329.063873,101.328232 
	C329.271576,99.355827 328.733856,97.304947 328.524231,95.288605 
	C326.677704,95.717972 324.831146,96.147339 322.537598,96.214844 
	C322.030853,95.490700 321.971100,95.128418 321.911377,94.766129 
z"/>
<path fill="#325785" opacity="1.000000" stroke="none" 
	d="
M283.134094,116.210197 
	C280.093994,125.334801 277.096069,134.473755 273.997498,143.578461 
	C272.227081,148.780518 268.151733,145.090347 264.393829,146.382965 
	C265.487946,142.124634 266.324188,138.650009 267.275757,135.207275 
	C270.239288,124.484962 273.248291,113.775208 276.233826,103.058968 
	C276.501099,102.099663 276.987091,101.107979 276.912231,100.167900 
	C276.791565,98.652206 276.288391,97.166954 275.946777,95.668846 
	C274.360260,96.338921 272.188660,96.578178 271.310913,97.770157 
	C269.569122,100.135536 268.523834,103.018044 267.224670,105.703270 
	C266.570953,107.054420 265.991608,108.441574 264.748322,109.494728 
	C266.173737,103.107918 266.992188,96.135162 273.697021,92.915581 
	C276.194092,91.716522 280.274475,91.351379 282.411896,92.636566 
	C284.160614,93.688042 284.758240,97.778076 284.664490,100.479340 
	C284.552490,103.708496 283.161774,106.893280 282.097565,110.758415 
	C282.291504,113.016426 282.712799,114.613312 283.134094,116.210197 
z"/>
<path fill="#305684" opacity="1.000000" stroke="none" 
	d="
M296.891846,93.717133 
	C297.748230,93.220673 298.604584,92.724213 299.902557,92.400726 
	C300.917023,92.309090 301.489868,92.044487 302.062744,91.779884 
	C303.111298,91.648796 304.159821,91.517700 305.696960,91.819916 
	C307.082794,92.519333 307.980042,92.785446 308.877258,93.051559 
	C312.327972,96.325325 311.098877,100.284843 310.361176,104.084709 
	C309.898010,106.470543 309.020569,108.775955 308.197418,111.853683 
	C308.721375,113.728523 309.376953,114.867142 310.032532,116.005753 
	C306.723633,125.011414 303.428864,134.022308 300.098907,143.020187 
	C298.744781,146.679260 298.709991,146.666382 289.964966,145.758774 
	C291.452179,140.686218 292.899872,135.702377 294.375061,130.726669 
	C297.339539,120.727730 300.483093,110.777939 303.223877,100.718262 
	C304.619446,95.595955 303.344147,94.554298 297.521759,95.072983 
	C297.001373,94.384857 296.946625,94.050995 296.891846,93.717133 
z"/>
<path fill="#305684" opacity="1.000000" stroke="none" 
	d="
M371.681213,92.186562 
	C372.312378,92.597656 372.594910,93.063087 372.688751,93.988403 
	C359.271820,106.687218 354.995331,122.396797 355.208862,139.724930 
	C355.249359,143.012238 357.327637,144.874481 360.980133,144.208481 
	C360.999695,145.062592 361.008179,145.550735 361.016663,146.038864 
	C353.042816,149.324280 347.400574,146.567780 346.110443,138.756485 
	C343.499878,122.950272 356.732941,98.545372 371.681213,92.186562 
z"/>
<path fill="#345887" opacity="1.000000" stroke="none" 
	d="
M222.896790,146.460342 
	C222.305328,146.142273 222.062958,145.948700 221.576172,145.703857 
	C219.796509,144.430420 218.233002,143.243652 216.312988,142.049438 
	C216.251678,139.487488 216.676147,136.940094 216.818024,134.377075 
	C217.258545,126.420174 218.776031,118.951782 225.917908,113.925720 
	C226.448105,114.468353 226.560165,114.727249 226.470612,115.329872 
	C222.994934,122.181435 221.006760,128.833649 223.995407,136.021439 
	C224.009064,135.999710 223.959747,135.992249 223.959747,135.992249 
	C224.026886,141.181274 227.152954,144.367218 232.308228,144.292130 
	C234.082779,144.266312 235.851242,143.822708 238.354095,143.828705 
	C239.311829,144.296570 239.537964,144.505676 239.764114,144.714767 
	C234.569916,148.044815 229.005905,148.050980 222.896790,146.460342 
z"/>
<path fill="#3A5A89" opacity="1.000000" stroke="none" 
	d="
M244.104477,101.731529 
	C243.230637,100.299339 241.955444,99.012161 242.151123,98.013062 
	C242.583847,95.803604 243.756332,93.739029 244.627075,91.615356 
	C246.692413,92.548851 249.836121,92.951675 250.608582,94.521385 
	C252.473282,98.310684 253.755569,102.573502 254.328506,106.774185 
	C255.686310,116.728966 253.859451,126.289146 249.077606,135.163544 
	C247.956818,137.243561 246.236191,139.000381 244.791550,140.905914 
	C244.385849,140.661575 243.980148,140.417236 243.574463,140.172897 
	C244.039658,139.118057 244.346497,137.952362 244.995071,137.025909 
	C250.238373,129.536362 252.033676,121.053978 252.254410,112.121170 
	C252.347168,108.367775 252.252869,104.709770 247.256409,103.897972 
	C246.219391,103.729485 245.328598,102.660965 244.104477,101.731529 
z"/>
<path fill="#435E8F" opacity="1.000000" stroke="none" 
	d="
M227.362854,111.323975 
	C229.206268,110.594620 231.112122,109.218163 232.868835,109.387611 
	C233.863449,109.483551 235.064941,112.023407 235.396667,113.623528 
	C236.993393,121.325356 231.461349,132.255020 224.243286,135.780518 
	C223.959747,135.992249 224.009064,135.999710 224.326080,135.890900 
	C229.318085,130.175461 232.460907,123.861305 232.907349,116.499985 
	C232.990585,115.127365 231.750107,113.674469 230.829803,111.971100 
	C229.480331,111.563713 228.421585,111.443848 227.362854,111.323975 
z"/>
<path fill="#496192" opacity="1.000000" stroke="none" 
	d="
M296.555908,93.802551 
	C296.946625,94.050995 297.001373,94.384857 297.139191,95.220139 
	C292.702271,102.398026 288.182281,109.074509 283.398193,115.980591 
	C282.712799,114.613312 282.291504,113.016426 281.997681,111.103523 
	C283.170929,109.740974 284.317322,108.776093 285.244904,107.633553 
	C288.940277,103.081772 292.567474,98.474625 296.555908,93.802551 
z"/>
<path fill="#4B6293" opacity="1.000000" stroke="none" 
	d="
M310.289795,115.782944 
	C309.376953,114.867142 308.721375,113.728523 308.081726,112.196594 
	C309.135162,110.785835 310.319305,109.878944 311.184326,108.731468 
	C314.601654,104.198189 317.918915,99.589455 321.592316,94.887421 
	C321.971100,95.128418 322.030853,95.490700 322.186584,96.396408 
	C318.370728,103.146599 314.458893,109.353363 310.289795,115.782944 
z"/>
<path fill="#476091" opacity="1.000000" stroke="none" 
	d="
M361.363586,146.004715 
	C361.008179,145.550735 360.999695,145.062592 361.166016,143.939102 
	C364.306335,140.108292 367.271912,136.912842 370.237488,133.717392 
	C370.535065,133.770416 370.832672,133.823456 371.578888,133.942093 
	C368.588531,137.995331 365.149536,141.982941 361.363586,146.004715 
z"/>
<path fill="#325785" opacity="1.000000" stroke="none" 
	d="
M220.359039,99.017151 
	C220.006424,98.255142 219.994492,97.457626 219.970367,96.261459 
	C221.129791,95.367874 222.301407,94.872948 223.473022,94.378014 
	C223.713318,94.611786 223.953598,94.845551 224.193893,95.079323 
	C223.029175,96.380096 221.864456,97.680870 220.359039,99.017151 
z"/>
<path fill="#325785" opacity="1.000000" stroke="none" 
	d="
M197.231491,105.114517 
	C197.659149,104.873840 197.924210,104.901596 198.587677,104.962296 
	C198.498489,106.517235 198.010910,108.039230 197.523315,109.561226 
	C197.072769,109.424355 196.622238,109.287476 196.171707,109.150604 
	C196.470764,107.894722 196.769821,106.638832 197.231491,105.114517 
z"/>
<path fill="#F3A9F0" opacity="1.000000" stroke="none" 
	d="
M227.240540,111.470665 
	C228.421585,111.443848 229.480331,111.563713 230.450714,112.170776 
	C229.132309,113.434029 227.902267,114.210083 226.672226,114.986137 
	C226.560165,114.727249 226.448105,114.468353 226.276154,113.789917 
	C226.516922,112.786034 226.817581,112.201691 227.240540,111.470665 
z"/>
<path fill="#496192" opacity="1.000000" stroke="none" 
	d="
M308.748993,92.780670 
	C307.980042,92.785446 307.082794,92.519333 306.063507,91.993721 
	C306.834534,91.992744 307.727631,92.251266 308.748993,92.780670 
z"/>
<path fill="#345887" opacity="1.000000" stroke="none" 
	d="
M238.771133,143.749069 
	C239.102615,142.950745 239.748657,142.490814 240.810257,142.212830 
	C241.531525,142.603424 241.837219,142.812057 242.142944,143.020721 
	C241.536072,143.524536 240.929214,144.028366 240.043243,144.623474 
	C239.537964,144.505676 239.311829,144.296570 238.771133,143.749069 
z"/>
<path fill="#496192" opacity="1.000000" stroke="none" 
	d="
M301.800354,91.681641 
	C301.489868,92.044487 300.917023,92.309090 300.203064,92.390549 
	C300.553986,91.999413 301.045990,91.791412 301.800354,91.681641 
z"/>
<path fill="#3A5A89" opacity="1.000000" stroke="none" 
	d="
M242.291504,142.606125 
	C241.837219,142.812057 241.531525,142.603424 241.104218,142.140244 
	C241.468430,141.987656 241.954269,142.089600 242.291504,142.606125 
z"/>
<path fill="#FBFCFD" opacity="1.000000" stroke="none" 
	d="
M150.310181,140.242249 
	C149.821564,126.064415 152.337143,112.954422 159.922546,101.306824 
	C161.881973,98.298073 165.096191,95.606537 168.348389,94.067963 
	C172.289566,92.203438 175.672638,94.810089 175.917206,99.212547 
	C176.673141,112.818832 173.833969,125.642349 166.722549,137.327393 
	C165.209961,139.812790 163.034836,142.124039 160.662415,143.807220 
	C156.335678,146.876968 152.784119,145.593521 150.310181,140.242249 
z"/>
<path fill="#FEFEFE" opacity="1.000000" stroke="none" 
	d="
M103.604904,105.957275 
	C103.844498,106.564049 103.714760,107.189674 103.271881,107.972374 
	C103.051010,107.411674 103.143295,106.693901 103.604904,105.957275 
z"/>
<path fill="#4D7096" opacity="1.000000" stroke="none" 
	d="
M100.469482,114.443413 
	C100.523781,114.409958 100.415176,114.476868 100.469482,114.443413 
z"/>
<path fill="#F7F9FA" opacity="1.000000" stroke="none" 
	d="
M461.073975,114.546921 
	C456.666168,116.590630 452.458374,118.370209 447.842468,120.073486 
	C449.428284,111.768188 453.157440,104.390083 459.102783,98.385124 
	C461.287598,96.178421 464.457764,94.947258 467.534363,93.290146 
	C470.905304,101.947212 467.180328,108.459061 461.073975,114.546921 
z"/>
<path fill="#F9ABF3" opacity="1.000000" stroke="none" 
	d="
M370.394104,133.384399 
	C367.271912,136.912842 364.306335,140.108292 361.154907,143.573120 
	C357.327637,144.874481 355.249359,143.012238 355.208862,139.724930 
	C354.995331,122.396797 359.271820,106.687218 372.766663,94.250046 
	C379.734985,93.622635 380.405731,94.274567 381.776123,102.743637 
	C378.136414,113.074875 374.343567,123.063141 370.394104,133.384399 
z"/>
<path fill="#FBADF4" opacity="1.000000" stroke="none" 
	d="
M226.470612,115.329872 
	C227.902267,114.210083 229.132309,113.434029 230.741440,112.458298 
	C231.750107,113.674469 232.990585,115.127365 232.907349,116.499985 
	C232.460907,123.861305 229.318085,130.175461 224.312424,135.912628 
	C221.006760,128.833649 222.994934,122.181435 226.470612,115.329872 
M226.482422,125.592766 
	C226.482422,125.592766 226.412888,125.477592 226.482422,125.592766 
z"/>
<path fill="#F3A9F0" opacity="1.000000" stroke="none" 
	d="
M226.447662,125.535179 
	C226.412888,125.477592 226.482422,125.592766 226.447662,125.535179 
z"/>
</svg>