<?xml version="1.0" standalone="no"?>
<!DOCTYPE svg PUBLIC "-//W3C//DTD SVG 20010904//EN"
 "http://www.w3.org/TR/2001/REC-SVG-20010904/DTD/svg10.dtd">
<svg width="140" height="45" version="1.0" xmlns="http://www.w3.org/2000/svg" viewBox="0 0 552.000000 197.000000"
 preserveAspectRatio="xMidYMid meet">

<g transform="translate(0.000000,197.000000) scale(0.100000,-0.100000)"
fill="#000000" stroke="none">
<path d="M1120 1330 c-8 -5 -48 -15 -87 -22 -40 -6 -73 -16 -73 -20 0 -4 8 -8
18 -8 24 0 42 -19 42 -46 0 -12 -45 -173 -100 -358 -55 -185 -100 -341 -100
-346 0 -6 18 -10 39 -10 l39 0 37 112 c70 213 161 367 235 398 35 14 60 1 60
-32 0 -11 -27 -103 -61 -205 -82 -249 -81 -283 6 -283 58 0 98 34 125 107 28
76 17 80 -15 6 -26 -59 -62 -93 -84 -79 -19 12 -12 46 49 232 33 100 60 196
60 213 0 60 -69 90 -143 62 -38 -15 -91 -73 -131 -143 -20 -35 -36 -60 -36
-56 0 4 31 114 70 245 38 130 68 238 67 239 -1 2 -9 -1 -17 -6z"/>
<path d="M4218 1213 c-27 -4 -36 -23 -63 -135 -7 -26 -11 -28 -56 -28 -27 0
-49 -4 -49 -10 0 -5 21 -10 46 -10 43 0 45 -1 38 -22 -55 -173 -114 -408 -109
-435 7 -41 39 -63 90 -63 73 0 119 45 150 148 13 44 -11 21 -30 -29 -24 -61
-62 -94 -98 -85 -14 3 -28 13 -31 23 -4 9 21 117 56 240 l63 223 72 0 c42 0
73 4 73 10 0 6 -28 10 -65 10 -76 0 -76 0 -45 100 11 36 20 66 20 68 0 2 -24
1 -62 -5z"/>
<path d="M2237 1054 c-35 -30 -84 -31 -131 -3 -31 18 -38 19 -63 7 -31 -15
-59 -59 -79 -123 -17 -58 -2 -58 20 0 20 51 44 63 81 39 25 -16 28 -16 63 0
32 14 27 8 -40 -56 -140 -134 -200 -237 -184 -321 16 -85 119 -114 217 -61
l48 27 31 -27 c61 -51 182 -29 244 45 78 92 111 268 76 398 -21 81 -91 116
-106 54 -10 -37 10 -70 56 -93 31 -16 40 -27 41 -48 9 -176 -70 -336 -177
-357 -29 -5 -43 -2 -62 12 -48 36 -49 48 -8 93 50 56 76 114 76 175 0 63 -10
80 -43 71 -64 -16 -137 -149 -137 -250 0 -58 -12 -76 -64 -96 -38 -14 -82 2
-90 33 -30 114 36 259 190 414 46 46 79 85 76 87 -4 2 -20 -7 -35 -20z m81
-224 c5 -50 -15 -109 -55 -164 -35 -49 -36 -50 -45 -25 -18 48 12 161 54 207
28 29 42 24 46 -18z"/>
<path d="M2746 1060 c-40 -12 -61 -34 -84 -88 -28 -67 -35 -92 -24 -92 5 0 19
27 31 60 21 56 50 90 78 90 24 0 14 -59 -47 -275 -33 -118 -60 -219 -60 -224
0 -16 80 -14 85 2 2 6 18 57 35 112 67 214 171 385 234 385 15 0 29 -7 33 -16
5 -13 -103 -397 -135 -482 -3 -10 7 -12 43 -10 l48 3 32 95 c63 186 119 301
182 371 38 42 79 52 90 22 4 -9 -19 -92 -50 -187 -79 -240 -83 -260 -63 -291
13 -20 25 -25 60 -25 59 0 98 33 125 106 24 62 24 64 13 64 -4 0 -16 -22 -26
-49 -9 -27 -28 -59 -41 -71 -26 -24 -55 -21 -55 6 0 9 27 100 60 203 33 103
60 201 60 218 0 45 -28 75 -71 75 -75 0 -129 -48 -195 -173 -24 -46 -43 -82
-44 -79 0 3 9 39 20 80 37 142 22 178 -70 170 -62 -5 -111 -54 -174 -175 -20
-38 -34 -61 -32 -50 22 85 36 153 36 171 0 44 -42 69 -94 54z"/>
<path d="M3725 1060 c-79 -17 -148 -83 -208 -198 -95 -180 -87 -342 17 -350
72 -6 115 26 181 133 35 58 40 49 14 -23 -14 -38 -10 -78 9 -95 49 -44 137 4
166 90 25 72 18 85 -9 18 -22 -55 -54 -95 -76 -95 -31 0 -24 44 41 275 37 132
66 241 65 243 -1 1 -21 0 -44 -4 -32 -5 -43 -12 -47 -30 -8 -32 -17 -30 -30 4
-12 32 -35 41 -79 32z m60 -35 c32 -32 32 -71 -1 -177 -44 -142 -137 -291
-190 -304 -40 -10 -54 11 -54 79 0 130 74 322 150 390 47 44 62 45 95 12z"/>
<path d="M590 1038 c-78 -53 -89 -139 -27 -231 54 -82 77 -133 77 -171 0 -72
-35 -108 -107 -110 l-38 -1 -5 50 c-6 58 -15 75 -39 75 -37 0 -53 -48 -30 -92
26 -48 142 -63 213 -28 56 27 86 74 86 132 0 59 -9 82 -66 169 -53 82 -63 123
-40 167 19 37 44 52 86 52 34 0 49 -22 30 -45 -20 -24 -8 -70 18 -73 32 -5 52
15 52 53 0 49 -29 69 -108 73 -57 3 -72 0 -102 -20z"/>
<path d="M1605 1041 c-107 -48 -198 -217 -199 -366 -1 -116 42 -165 141 -165
117 1 214 92 268 254 42 124 30 227 -30 274 -36 28 -122 30 -180 3z m125 -11
c17 -17 20 -33 20 -97 -1 -164 -78 -355 -160 -398 -39 -20 -56 -19 -80 5 -44
44 -12 265 58 395 56 102 118 139 162 95z"/>
<path d="M4607 1050 c-37 -11 -109 -68 -149 -116 -17 -22 -47 -73 -67 -114
-33 -69 -36 -82 -36 -162 0 -81 2 -89 27 -114 19 -20 39 -28 77 -32 70 -6 129
18 180 73 53 58 53 77 1 25 -45 -45 -76 -60 -123 -60 -56 0 -78 31 -76 107 2
82 8 93 70 117 82 31 188 96 216 133 33 43 42 107 18 133 -20 22 -84 26 -138
10z m71 -40 c8 -85 -43 -162 -139 -211 -93 -46 -97 -40 -45 66 37 78 84 141
124 167 38 26 56 19 60 -22z"/>
<path d="M4954 1046 c-41 -18 -71 -58 -79 -106 -7 -43 15 -100 77 -193 24 -37
33 -63 36 -107 4 -54 2 -61 -22 -84 -27 -24 -96 -43 -116 -31 -5 3 -10 28 -10
54 0 26 -5 52 -12 59 -36 36 -81 -13 -59 -66 34 -82 223 -79 278 4 41 64 36
130 -19 217 -69 110 -80 141 -68 187 16 58 68 85 124 64 14 -5 14 -9 0 -36 -9
-18 -13 -40 -9 -55 5 -20 11 -24 38 -21 30 3 32 6 35 44 4 57 -21 77 -101 81
-38 2 -74 -2 -93 -11z"/>
</g>
</svg>
